<?xml version="1.0" encoding="UTF-8"?>
<svg id="Layer_2" data-name="Layer 2" xmlns="http://www.w3.org/2000/svg" width="228.86" height="228.86" xmlns:xlink="http://www.w3.org/1999/xlink" viewBox="0 0 228.86 228.86">
  <defs>
    <linearGradient id="Unbenannter_Verlauf_44" data-name="Unbenannter Verlauf 44" x1="114.23" y1="6.38" x2="114.23" y2="184.45" gradientUnits="userSpaceOnUse">
      <stop offset="0" stop-color="#2a2f32"/>
      <stop offset="1" stop-color="#17191a"/>
    </linearGradient>
    <linearGradient id="Unbenannter_Verlauf_51" data-name="Unbenannter Verlauf 51" x1="114.24" y1="19.78" x2="114.24" y2="175.57" gradientUnits="userSpaceOnUse">
      <stop offset="0" stop-color="#495158"/>
      <stop offset="1" stop-color="#1f2225"/>
    </linearGradient>
  </defs>
  <g id="Ebene_2" data-name="Ebene 2">
    <path d="m196.56,184.45c16.37-18.89,25.36-43.42,25.36-70.37,0-59.48-48.22-107.7-107.7-107.7S6.53,54.59,6.53,114.07c0,27.09,9.51,51.16,26.02,70.09l14.03-12.38c-13.45-15.54-20.97-35.21-20.97-57.38,0-48.94,39.67-88.61,88.61-88.61s88.61,39.67,88.61,88.61c0,21.98-7.55,41.19-20.8,56.68l14.52,13.37Z" fill="url(#Unbenannter_Verlauf_44)"/>
    <path d="m186.56,175.22c14.35-16.56,22.1-37.39,22.1-61.03,0-52.14-42.27-94.41-94.41-94.41S19.83,62.05,19.83,114.19c0,23.89,7.85,44.75,22.48,61.38l4.27-3.77c-13.6-15.46-20.13-35.4-20.13-57.61,0-48.48,39.3-87.79,87.79-87.79s87.79,39.3,87.79,87.79c0,22.17-6.39,41.43-19.95,56.88l4.48,4.14Z" fill="url(#Unbenannter_Verlauf_51)"/>
    <g>
      <path d="m109.8,196.55h-4.66v-.69l1.87-1.88c.57-.58.94-.99,1.12-1.23.18-.25.32-.48.41-.72.09-.23.14-.48.14-.75,0-.38-.11-.68-.34-.9-.23-.22-.55-.33-.95-.33-.29,0-.57.05-.84.14-.26.1-.56.27-.88.53l-.43-.55c.65-.54,1.36-.81,2.13-.81.67,0,1.19.17,1.56.51s.57.8.57,1.37c0,.45-.13.89-.38,1.33s-.72,1-1.41,1.67l-1.55,1.52v.04h3.64v.75Z" fill="#fff"/>
      <path d="m110.9,193.53c0-1.39.27-2.43.81-3.12.54-.69,1.34-1.03,2.4-1.03.36,0,.65.03.86.09v.69c-.25-.08-.53-.12-.85-.12-.76,0-1.34.24-1.74.71-.4.47-.62,1.22-.66,2.23h.06c.35-.56.92-.83,1.69-.83.64,0,1.14.19,1.5.58.37.38.55.91.55,1.56,0,.74-.2,1.32-.6,1.74-.4.42-.95.63-1.63.63-.73,0-1.31-.28-1.74-.83-.43-.55-.64-1.32-.64-2.3Zm2.38,2.44c.46,0,.81-.14,1.07-.43s.38-.71.38-1.25c0-.47-.12-.84-.35-1.1-.24-.27-.59-.4-1.06-.4-.29,0-.56.06-.8.18-.24.12-.44.28-.58.49s-.22.43-.22.65c0,.33.06.64.19.93.13.29.31.52.55.68.24.17.51.25.81.25Z" fill="#fff"/>
      <path d="m118.84,189.37c.65,0,1.16.15,1.54.45.38.3.57.71.57,1.24,0,.35-.11.67-.32.96-.22.29-.56.55-1.04.78.57.28.98.56,1.23.87s.36.65.36,1.05c0,.59-.21,1.06-.62,1.41s-.97.53-1.69.53c-.76,0-1.34-.17-1.74-.5s-.61-.8-.61-1.41c0-.81.49-1.44,1.48-1.89-.45-.25-.77-.52-.96-.82s-.29-.62-.29-.98c0-.51.19-.92.57-1.23s.89-.46,1.52-.46Zm-1.53,5.4c0,.39.13.69.4.91.27.22.65.33,1.14.33s.86-.11,1.12-.34c.27-.23.4-.54.4-.93,0-.31-.13-.59-.38-.84s-.69-.48-1.32-.71c-.48.21-.83.44-1.05.69-.22.25-.32.55-.32.9Zm1.52-4.74c-.4,0-.72.1-.95.29-.23.19-.34.45-.34.77,0,.3.1.55.29.77.19.21.54.43,1.06.64.46-.19.79-.4.98-.62.19-.22.29-.48.29-.78,0-.33-.12-.58-.35-.78-.23-.19-.56-.29-.97-.29Z" fill="#fff"/>
      <path d="m125.91,193.84c.14-.2.35-.46.63-.78l1.71-1.82h.95l-2.15,2.26,2.3,3.05h-.97l-1.87-2.51-.61.52v1.99h-.79v-7.54h.79v4c0,.18-.01.45-.04.82h.04Z" fill="#fff"/>
      <path d="m137.09,196.55v-3.45c0-.42-.09-.74-.27-.95-.18-.21-.46-.32-.84-.32-.5,0-.87.14-1.11.43-.24.29-.36.73-.36,1.33v2.96h-.8v-3.45c0-.42-.09-.74-.27-.95-.18-.21-.46-.32-.85-.32-.5,0-.87.15-1.11.45-.23.3-.35.8-.35,1.49v2.79h-.8v-5.31h.65l.13.73h.04c.15-.26.37-.46.64-.61.28-.15.59-.22.93-.22.83,0,1.37.3,1.63.9h.04c.16-.28.39-.5.69-.66s.64-.24,1.03-.24c.6,0,1.05.15,1.35.46.3.31.45.8.45,1.48v3.46h-.8Z" fill="#fff"/>
    </g>
    <circle cx="114.43" cy="114.43" r="113.68" fill="none" stroke="#2c2d2e" stroke-miterlimit="10" stroke-width="1.5"/>
    <g>
      <path d="m15.22,90.19c.14-.58.39-1,.75-1.26.36-.26.8-.33,1.29-.21.57.14.97.42,1.2.86.24.44.28.97.12,1.61-.15.62-.36,1.06-.63,1.34l-.6-.14c.15-.15.29-.34.42-.59.12-.24.22-.49.28-.74.11-.44.08-.8-.07-1.1-.15-.29-.42-.49-.81-.58-.76-.18-1.26.19-1.48,1.13-.06.24-.1.56-.12.98l-.28.27-2.51-.82.65-2.72.57.14-.53,2.19,1.61.53c.01-.3.05-.59.12-.88Z" fill="#043a31"/>
      <path d="m17.33,84.04c.95.23,1.62.55,2.01.96.39.41.52.92.37,1.54-.14.59-.49.98-1.04,1.17-.55.19-1.29.18-2.21-.04-.95-.23-1.62-.55-2.01-.95-.39-.41-.51-.92-.37-1.52.14-.6.49-.99,1.05-1.18.56-.19,1.29-.18,2.2.04Zm-.72,2.99c.8.19,1.4.24,1.81.14.41-.1.66-.35.76-.76.1-.41-.01-.76-.34-1.03-.32-.27-.88-.51-1.66-.69-.79-.19-1.38-.23-1.79-.14-.41.1-.67.35-.76.77-.1.41,0,.75.33,1.02.31.27.87.51,1.67.7Z" fill="#043a31"/>
    </g>
    <g>
      <path d="m111.55,16.11h-.62v-4.01c0-.33.01-.65.03-.95-.05.05-.11.11-.18.17-.07.06-.37.31-.92.75l-.34-.44,1.49-1.15h.54v5.63Z" fill="#495158"/>
      <path d="m117.17,11.81c0,.36-.1.65-.3.88-.2.23-.49.38-.86.46v.03c.45.06.79.2,1,.43.22.23.33.53.33.91,0,.54-.19.95-.56,1.24s-.9.43-1.58.43c-.3,0-.57-.02-.82-.07-.25-.04-.49-.12-.72-.24v-.61c.24.12.5.21.78.27.28.06.54.09.78.09.97,0,1.46-.38,1.46-1.14,0-.68-.54-1.02-1.61-1.02h-.55v-.55h.56c.44,0,.79-.1,1.04-.29.26-.19.39-.46.39-.81,0-.27-.09-.49-.28-.65-.19-.16-.44-.23-.77-.23-.25,0-.48.03-.7.1-.22.07-.47.19-.75.37l-.32-.43c.23-.18.5-.33.8-.43.3-.1.62-.16.95-.16.55,0,.97.12,1.27.38.3.25.45.59.45,1.03Z" fill="#495158"/>
      <path d="m121.92,13.29c0,.97-.15,1.7-.46,2.18-.31.48-.78.72-1.41.72s-1.07-.25-1.38-.74c-.32-.49-.47-1.21-.47-2.16s.15-1.71.46-2.18.77-.71,1.4-.71,1.07.25,1.39.74c.32.5.48,1.21.48,2.15Zm-3.08,0c0,.82.1,1.41.29,1.79.19.37.5.56.92.56s.73-.19.93-.57.29-.97.29-1.78-.1-1.4-.29-1.78c-.19-.38-.5-.56-.93-.56s-.73.19-.92.56-.29.97-.29,1.78Z" fill="#495158"/>
    </g>
    <g>
      <path d="m208.56,144.73l1.11-3.53.52.17.98,1.86c.3.57.52.95.67,1.14.14.2.29.36.45.48.16.12.33.22.54.28.29.09.54.07.76-.05.22-.12.38-.34.48-.64.07-.22.1-.45.09-.67-.01-.22-.08-.49-.19-.79l.52-.19c.26.62.29,1.23.11,1.81-.16.5-.41.86-.76,1.06s-.74.24-1.18.1c-.34-.11-.65-.31-.92-.6-.27-.29-.58-.78-.93-1.47l-.78-1.54h-.03s-.87,2.75-.87,2.75l-.57-.18Z" fill="#495158"/>
      <path d="m208.37,149.67l.25-.8-1.23-.39.18-.58,1.23.39.82-2.61.53.17,2.83,3.69-.2.65-3.61-1.13-.25.8-.55-.17Zm.99-1.21l1.79.56c.35.11.74.25,1.17.41v-.03c-.19-.19-.35-.36-.47-.51l-1.86-2.43-.63,2Z" fill="#495158"/>
      <path d="m208.55,154.2c-.93-.29-1.58-.65-1.94-1.09-.37-.44-.46-.96-.27-1.56.18-.58.55-.94,1.12-1.1.56-.15,1.3-.09,2.2.2.93.29,1.58.65,1.95,1.09s.45.95.26,1.55c-.18.58-.56.95-1.12,1.11-.57.15-1.3.09-2.2-.19Zm.92-2.94c-.78-.24-1.38-.33-1.79-.26s-.68.31-.81.71c-.13.41-.04.76.26,1.05.3.3.84.57,1.61.81.77.24,1.37.33,1.78.26.42-.07.69-.31.81-.71.13-.4.04-.75-.26-1.04-.3-.29-.84-.56-1.62-.81Z" fill="#495158"/>
    </g>
    <rect x="208.62" y="112.65" width="14.72" height="4.1"/>
    <rect x="15.43" y="163.52" width="24.67" height="4.1" transform="translate(-79.07 36.07) rotate(-30)"/>
    <rect x="14.9" y="169.49" width="7.38" height="2.31" transform="translate(-84.61 33.48) rotate(-30.74)" fill="#555"/>
    <rect x="14.91" y="170.17" width="7.38" height=".96" transform="translate(-84.61 33.48) rotate(-30.74)" fill="#fff"/>
    <path d="m48.29,197.42c18.48,14.91,41.98,23.83,67.57,23.83,12.55,0,24.59-2.15,35.79-6.09l-2.13-5.55c-10.57,3.76-21.95,5.81-33.81,5.81-23.96,0-46.32-8.53-63.62-22.49l-3.81,4.49Z" fill="#59f1be"/>
    <path d="m181.36,197.69c-18.24,14.19-40.55,23.46-65.45,23.46s-49.39-8.49-67.87-23.4" fill="none" stroke="#48494a" stroke-miterlimit="10" stroke-width="2"/>
    <path d="m92.57,188.3h-3.68s0,1.73,0,1.73h.67c-.11,4.63,2.23,4.49,2.23,4.49v3.68s.78,0,.78,0h.78v-3.68s2.33.14,2.23-4.49h.67v-1.73h-3.68Z" fill="#59f1be"/>
    <rect x="93.28" y="185.39" width="1.46" height="2.24" fill="#59f1be"/>
    <rect x="90.34" y="185.39" width="1.46" height="2.24" fill="#59f1be"/>
  </g>
</svg>