<?xml version="1.0" encoding="UTF-8"?>
<svg id="Layer_2" data-name="Layer 2" xmlns="http://www.w3.org/2000/svg" width="229.69" height="228.86" xmlns:xlink="http://www.w3.org/1999/xlink" viewBox="0 0 229.69 228.86">
  <defs>
    <linearGradient id="Unbenannter_Verlauf_44" data-name="Unbenannter Verlauf 44" x1="115.06" y1="6.38" x2="115.06" y2="184.45" gradientUnits="userSpaceOnUse">
      <stop offset="0" stop-color="#2a2f32"/>
      <stop offset="1" stop-color="#17191a"/>
    </linearGradient>
    <linearGradient id="Unbenannter_Verlauf_51" data-name="Unbenannter Verlauf 51" x1="115.08" y1="19.78" x2="115.08" y2="175.57" gradientUnits="userSpaceOnUse">
      <stop offset="0" stop-color="#495158"/>
      <stop offset="1" stop-color="#1f2225"/>
    </linearGradient>
  </defs>
  <g id="Ebene_2" data-name="Ebene 2">
    <path d="m197.4,184.45c16.37-18.89,25.36-43.42,25.36-70.37,0-59.48-48.22-107.7-107.7-107.7S7.36,54.59,7.36,114.07c0,27.09,9.51,51.16,26.02,70.09l14.03-12.38c-13.45-15.54-20.97-35.21-20.97-57.38,0-48.94,39.67-88.61,88.61-88.61s88.61,39.67,88.61,88.61c0,21.98-7.55,41.19-20.8,56.68l14.52,13.37Z" fill="url(#Unbenannter_Verlauf_44)"/>
    <path d="m187.39,175.22c14.35-16.56,22.1-37.39,22.1-61.03,0-52.14-42.27-94.41-94.41-94.41S20.66,62.05,20.66,114.19c0,23.89,7.85,44.75,22.48,61.38l4.27-3.77c-13.6-15.46-20.13-35.4-20.13-57.61,0-48.48,39.3-87.79,87.79-87.79s87.79,39.3,87.79,87.79c0,22.17-6.39,41.43-19.95,56.88l4.48,4.14Z" fill="url(#Unbenannter_Verlauf_51)"/>
    <rect x="96.06" y="187.62" width="7.43" height="10.48" fill="#59f1be"/>
    <rect x="97.74" y="185.43" width="4.08" height="1.69" fill="#59f1be"/>
    <g>
      <path d="m112.17,196.55l2.94-6.34h-3.86v-.74h4.71v.64l-2.9,6.44h-.89Z" fill="#fff"/>
      <path d="m119.29,189.37c.65,0,1.16.15,1.54.45.38.3.57.71.57,1.24,0,.35-.11.67-.32.96-.22.29-.56.55-1.04.78.58.28.98.56,1.23.87s.36.65.36,1.05c0,.59-.21,1.06-.62,1.41s-.97.53-1.69.53c-.76,0-1.34-.17-1.74-.5-.41-.33-.61-.8-.61-1.41,0-.81.49-1.44,1.48-1.89-.45-.25-.77-.52-.96-.82-.19-.29-.29-.62-.29-.98,0-.51.19-.92.57-1.23.38-.31.89-.46,1.52-.46Zm-1.53,5.4c0,.39.13.69.4.91.27.22.65.33,1.14.33s.86-.11,1.12-.34c.27-.23.4-.54.4-.93,0-.31-.13-.59-.38-.84s-.69-.48-1.32-.71c-.48.21-.83.44-1.05.69-.22.25-.32.55-.32.9Zm1.52-4.74c-.4,0-.72.1-.95.29-.23.19-.34.45-.34.77,0,.3.09.55.29.77.19.21.54.43,1.06.64.46-.19.79-.4.98-.62.19-.22.29-.48.29-.78,0-.33-.12-.58-.35-.78s-.56-.29-.97-.29Z" fill="#fff"/>
      <path d="m125.52,191.58c0,.74-.12,1.29-.37,1.67-.25.38-.61.56-1.09.56-.45,0-.8-.19-1.05-.58-.25-.38-.38-.94-.38-1.66s.12-1.29.36-1.66c.24-.37.6-.56,1.07-.56s.83.19,1.08.58c.25.38.38.93.38,1.64Zm-2.22,0c0,.55.06.96.18,1.24.12.27.31.41.58.41.53,0,.79-.55.79-1.65s-.26-1.64-.79-1.64c-.27,0-.46.13-.58.41-.12.27-.18.68-.18,1.23Zm5.24-2.11l-3.93,7.08h-.71l3.93-7.08h.71Zm1.25,4.95c0,.73-.12,1.29-.37,1.66-.25.38-.61.56-1.09.56s-.81-.19-1.06-.58c-.25-.38-.37-.94-.37-1.65s.12-1.29.36-1.66c.24-.37.6-.56,1.07-.56s.82.19,1.07.57c.26.38.38.93.38,1.64Zm-2.22,0c0,.55.06.96.18,1.24.12.27.31.41.59.41s.47-.13.6-.4.19-.68.19-1.24-.07-.96-.19-1.23-.33-.4-.6-.4-.47.13-.59.4c-.12.27-.18.68-.18,1.23Z" fill="#fff"/>
    </g>
    <circle cx="115.26" cy="114.43" r="113.68" fill="none" stroke="#2c2d2e" stroke-miterlimit="10" stroke-width="1.5"/>
    <g>
      <path d="m111.15,15.95h-3.14v-5.63h3.14v.58h-2.48v1.81h2.33v.58h-2.33v2.07h2.48v.58Z" fill="#043a31"/>
      <path d="m114.81,10.83c-.62,0-1.11.21-1.46.62-.36.41-.54.98-.54,1.69s.17,1.31.52,1.71c.34.4.84.6,1.48.6.39,0,.84-.07,1.34-.21v.57c-.39.15-.87.22-1.44.22-.83,0-1.47-.25-1.92-.75s-.67-1.22-.67-2.14c0-.58.11-1.09.33-1.52s.53-.77.94-1.01.89-.35,1.45-.35c.59,0,1.11.11,1.55.32l-.28.56c-.43-.2-.85-.3-1.28-.3Z" fill="#043a31"/>
      <path d="m122.25,13.13c0,.9-.23,1.61-.68,2.12-.46.52-1.09.77-1.9.77s-1.47-.25-1.92-.76-.67-1.22-.67-2.15.23-1.63.68-2.13c.45-.5,1.09-.76,1.92-.76s1.44.26,1.89.77c.45.51.68,1.22.68,2.12Zm-4.48,0c0,.76.16,1.34.49,1.73.33.39.8.59,1.42.59s1.09-.2,1.41-.59c.32-.39.48-.97.48-1.74s-.16-1.33-.48-1.72c-.32-.39-.79-.59-1.41-.59s-1.1.2-1.42.59c-.32.39-.49.97-.49,1.72Z" fill="#043a31"/>
    </g>
    <g>
      <path d="m18.47,138.65c-.22-.58-.58-.96-1.1-1.15s-1.1-.16-1.77.1c-.69.26-1.16.62-1.41,1.09-.25.46-.27,1-.04,1.59.14.37.36.76.67,1.18l-.54.2c-.28-.31-.51-.74-.72-1.27-.29-.78-.29-1.46.02-2.06s.9-1.06,1.76-1.39c.54-.21,1.06-.29,1.54-.24.48.05.91.22,1.28.52.37.3.65.71.84,1.23.21.55.29,1.07.25,1.56l-.62-.06c.04-.47-.02-.9-.17-1.3Z" fill="#495158"/>
      <path d="m16.1,146.86l-.23-.61,2.48-.94-1.05-2.77-2.48.94-.23-.61,5.26-2,.23.61-2.24.85,1.05,2.77,2.24-.85.23.61-5.26,2Z" fill="#495158"/>
      <path d="m17.91,151.61l1.42-1.29-.8-2.11h-1.92s-.23-.63-.23-.63l6.07.08.19.51-4.5,4.07-.24-.63Zm1.9-1.69l1.4-1.23c.18-.16.4-.33.67-.53-.25.03-.53.05-.84.06h-1.86l.65,1.7Z" fill="#495158"/>
      <path d="m20.84,152.75l-2.19.83-.23-.61,5.26-2,.55,1.44c.25.65.3,1.17.17,1.57-.13.4-.44.7-.94.88-.7.26-1.3.09-1.81-.52l-1.82,2.32-.27-.72,1.7-2.1-.42-1.1Zm.53-.2l.32.84c.16.43.37.72.62.85.25.14.54.14.89,0,.35-.13.56-.33.63-.59.08-.26.03-.62-.14-1.08l-.3-.79-2.01.76Z" fill="#495158"/>
      <path d="m23.78,158.79l.68,1.79-2.56.97c-.19-.24-.37-.5-.52-.77-.16-.27-.3-.59-.45-.97-.3-.8-.3-1.51,0-2.13.31-.62.88-1.1,1.74-1.42.55-.21,1.07-.28,1.56-.22.5.06.93.26,1.3.59.37.33.67.77.88,1.33.21.56.31,1.12.29,1.69l-.63-.03c.02-.55-.05-1.05-.22-1.49-.24-.64-.62-1.07-1.14-1.28-.52-.21-1.11-.19-1.79.06-.71.27-1.18.65-1.42,1.13-.24.49-.23,1.07.03,1.74.14.37.32.71.53,1.02l1.62-.61-.45-1.18.55-.21Z" fill="#495158"/>
      <path d="m23.3,165.82l-1.11-2.93,5.26-2,1.11,2.93-.54.21-.88-2.32-1.7.64.83,2.18-.54.2-.83-2.18-1.94.73.88,2.32-.55.21Z" fill="#495158"/>
    </g>
    <g>
      <path d="m204.95,157.49c.54.2.88.53,1.03,1,.15.47.1,1.05-.15,1.72l-.23.62,2.08.77-.23.61-5.28-1.96.51-1.37c.49-1.32,1.25-1.79,2.27-1.41Zm.12,3.15l.21-.55c.2-.54.26-.97.17-1.28-.08-.31-.32-.54-.71-.68-.35-.13-.65-.11-.91.05-.25.16-.47.49-.65.97l-.25.69,2.14.79Z" fill="#495158"/>
      <path d="m208.15,152.22c.84.31,1.43.77,1.75,1.38s.35,1.29.07,2.05c-.29.78-.75,1.29-1.38,1.53-.63.25-1.38.21-2.25-.11-.86-.32-1.45-.78-1.76-1.38-.32-.6-.33-1.29-.04-2.07.28-.76.74-1.26,1.38-1.51.64-.25,1.38-.21,2.23.1Zm-1.56,4.2c.71.26,1.31.31,1.79.15.48-.17.83-.54,1.05-1.12.22-.58.2-1.09-.06-1.53-.26-.44-.74-.79-1.46-1.05-.71-.26-1.3-.31-1.78-.15-.48.16-.82.53-1.04,1.11-.22.58-.2,1.1.06,1.54.26.44.74.79,1.44,1.05Z" fill="#495158"/>
      <path d="m212.94,147.42l-.22.61-3.93-.25c-.17,0-.39-.02-.65-.05-.26-.02-.42-.05-.47-.06.3.17.61.38.95.64l3.13,2.33-.23.61-5.8-.55.24-.65,3.57.38c.5.05.94.12,1.33.21-.42-.23-.81-.48-1.18-.77l-2.86-2.13.24-.65,3.61.21c.42.02.87.08,1.37.18-.32-.17-.71-.41-1.15-.72l-2.94-2.04.24-.65,4.75,3.37Z" fill="#495158"/>
      <path d="m214.86,142.24l-1.09,2.94-5.28-1.96,1.09-2.94.54.2-.86,2.33,1.7.63.81-2.19.54.2-.81,2.19,1.94.72.86-2.33.55.2Z" fill="#495158"/>
      <path d="m213.33,139.64l2.19.81-.23.61-5.28-1.96.54-1.45c.24-.65.54-1.08.9-1.3.36-.22.79-.23,1.29-.05.7.26,1.04.79,1.02,1.58l2.9-.55-.27.73-2.67.46-.41,1.1Zm-.53-.2l.31-.84c.16-.43.19-.78.1-1.05-.1-.27-.32-.46-.66-.59-.35-.13-.64-.12-.87.03-.23.15-.43.45-.6.91l-.29.8,2.02.75Z" fill="#495158"/>
    </g>
    <rect x="202.56" y="112.65" width="22.24" height="4.1"/>
    <rect x="7.37" y="112.65" width="20.09" height="4.1"/>
    <rect y="113.42" width="7.38" height="2.31" fill="#555"/>
    <rect y="114.1" width="7.38" height=".96" fill="#fff"/>
    <path d="m99.4,196.75l2.56-4.81h-1.8v-2.78l-2.71,4.44h2.03s-.08,3.23-.08,3.16Z" fill="#0c0c0c"/>
    <path d="m49.12,197.42c18.48,14.91,41.98,23.83,67.57,23.83,12.55,0,24.59-2.15,35.79-6.09l-2.13-5.55c-10.57,3.76-21.95,5.81-33.81,5.81-23.96,0-46.32-8.53-63.62-22.49l-3.81,4.49Z" fill="#59f1be"/>
    <path d="m182.19,197.69c-18.24,14.19-40.55,23.46-65.45,23.46s-49.39-8.49-67.87-23.4" fill="none" stroke="#48494a" stroke-miterlimit="10" stroke-width="2"/>
  </g>
</svg>